{
  "asset": {
    "generator": "Khronos glTF Blender I/O v4.2.57",
    "version": "2.0"
  },
  "scene": 0,
  "scenes": [
    {
      "name": "Scene",
      "nodes": [
        0
      ]
    }
  ],
  "nodes": [
    {
      "mesh": 0,
      "name": "1VWT"
    }
  ],
  "materials": [
    {
      "name": "MN Default",
      "pbrMetallicRoughness": {
        "metallicFactor": 0,
        "roughnessFactor": 0.5
      }
    }
  ],
  "meshes": [
    {
      "name": "1VWT",
      "primitives": [
        {
          "attributes": {
            "POSITION": 0,
            "NORMAL": 1,
            "COLOR_0": 2,
            "COLOR_1": 3
          },
          "indices": 4,
          "material": 0
        }
      ]
    }
  ],
  "accessors": [
    {
      "bufferView": 0,
      "componentType": 5126,
      "count": 390576,
      "max": [
        0.48681241273880005,
        0.4277999699115753,
        0.28210002183914185
      ],
      "min": [
        -0.19307242333889008,
        -0.1526300013065338,
        -0.2930600047111511
      ],
      "type": "VEC3"
    },
    {
      "bufferView": 1,
      "componentType": 5126,
      "count": 390576,
      "type": "VEC3"
    },
    {
      "bufferView": 2,
      "componentType": 5121,
      "count": 390576,
      "normalized": true,
      "type": "VEC4"
    },
    {
      "bufferView": 3,
      "componentType": 5126,
      "count": 390576,
      "type": "VEC3"
    },
    {
      "bufferView": 4,
      "componentType": 5125,
      "count": 1779744,
      "type": "SCALAR"
    }
  ],
  "bufferViews": [
    {
      "buffer": 0,
      "byteLength": 4686912,
      "byteOffset": 0,
      "target": 34962
    },
    {
      "buffer": 0,
      "byteLength": 4686912,
      "byteOffset": 4686912,
      "target": 34962
    },
    {
      "buffer": 0,
      "byteLength": 1562304,
      "byteOffset": 9373824,
      "target": 34962
    },
    {
      "buffer": 0,
      "byteLength": 4686912,
      "byteOffset": 10936128,
      "target": 34962
    },
    {
      "buffer": 0,
      "byteLength": 7118976,
      "byteOffset": 15623040,
      "target": 34963
    }
  ],
  "buffers": [
    {
      "uri": "hemoglobin_data.bin",
      "byteLength": 22742016
    }
  ]
}